<?xml version="1.0" encoding="utf-8"?>
<!-- Generator: Adobe Illustrator 19.2.1, SVG Export Plug-In . SVG Version: 6.00 Build 0)  -->
<svg version="1.1" id="Layer_1" xmlns="http://www.w3.org/2000/svg" xmlns:xlink="http://www.w3.org/1999/xlink" x="0px" y="0px"
	 viewBox="0 0 227.5 48" style="enable-background:new 0 0 227.5 48;" xml:space="preserve">
<style type="text/css">
	.st0{fill:#DDDDDC;}
</style>
<g>
	<path class="st0" d="M1.9,4.5H1V4.1h0.9V4.5z M223.9,4.1h-1.7v0.4h1.7V4.1z M220.5,4.1h-1.7v0.4h1.7V4.1z M217.1,4.1h-1.7v0.4h1.7
		V4.1z M213.7,4.1H212v0.4h1.7V4.1z M210.3,4.1h-1.7v0.4h1.7V4.1z M206.9,4.1h-1.7v0.4h1.7V4.1z M203.4,4.1h-1.7v0.4h1.7V4.1z
		 M200,4.1h-1.7v0.4h1.7V4.1z M196.6,4.1h-1.7v0.4h1.7V4.1z M193.2,4.1h-1.7v0.4h1.7V4.1z M189.8,4.1h-1.7v0.4h1.7V4.1z M186.4,4.1
		h-1.7v0.4h1.7V4.1z M182.9,4.1h-1.7v0.4h1.7V4.1z M179.5,4.1h-1.7v0.4h1.7V4.1z M176.1,4.1h-1.7v0.4h1.7V4.1z M172.7,4.1H171v0.4
		h1.7V4.1z M169.3,4.1h-1.7v0.4h1.7V4.1z M165.9,4.1h-1.7v0.4h1.7V4.1z M162.4,4.1h-1.7v0.4h1.7V4.1z M159,4.1h-1.7v0.4h1.7V4.1z
		 M155.6,4.1h-1.7v0.4h1.7V4.1z M152.2,4.1h-1.7v0.4h1.7V4.1z M148.8,4.1h-1.7v0.4h1.7V4.1z M145.4,4.1h-1.7v0.4h1.7V4.1z
		 M141.9,4.1h-1.7v0.4h1.7V4.1z M138.5,4.1h-1.7v0.4h1.7V4.1z M135.1,4.1h-1.7v0.4h1.7V4.1z M131.7,4.1H130v0.4h1.7V4.1z M128.3,4.1
		h-1.7v0.4h1.7V4.1z M124.9,4.1h-1.7v0.4h1.7V4.1z M121.4,4.1h-1.7v0.4h1.7V4.1z M118,4.1h-1.7v0.4h1.7V4.1z M114.6,4.1h-1.7v0.4
		h1.7V4.1z M111.2,4.1h-1.7v0.4h1.7V4.1z M107.8,4.1h-1.7v0.4h1.7V4.1z M104.4,4.1h-1.7v0.4h1.7V4.1z M100.9,4.1h-1.7v0.4h1.7V4.1z
		 M97.5,4.1h-1.7v0.4h1.7V4.1z M94.1,4.1h-1.7v0.4h1.7V4.1z M90.7,4.1H89v0.4h1.7V4.1z M87.3,4.1h-1.7v0.4h1.7V4.1z M83.9,4.1h-1.7
		v0.4h1.7V4.1z M80.4,4.1h-1.7v0.4h1.7V4.1z M77,4.1h-1.7v0.4H77V4.1z M73.6,4.1h-1.7v0.4h1.7V4.1z M70.2,4.1h-1.7v0.4h1.7V4.1z
		 M66.8,4.1h-1.7v0.4h1.7V4.1z M63.4,4.1h-1.7v0.4h1.7V4.1z M59.9,4.1h-1.7v0.4h1.7V4.1z M56.5,4.1h-1.7v0.4h1.7V4.1z M53.1,4.1
		h-1.7v0.4h1.7V4.1z M49.7,4.1H48v0.4h1.7V4.1z M46.3,4.1h-1.7v0.4h1.7V4.1z M42.9,4.1h-1.7v0.4h1.7V4.1z M39.4,4.1h-1.7v0.4h1.7
		V4.1z M36,4.1h-1.7v0.4H36V4.1z M32.6,4.1h-1.7v0.4h1.7V4.1z M29.2,4.1h-1.7v0.4h1.7V4.1z M25.8,4.1h-1.7v0.4h1.7V4.1z M22.4,4.1
		h-1.7v0.4h1.7V4.1z M18.9,4.1h-1.7v0.4h1.7V4.1z M15.5,4.1h-1.7v0.4h1.7V4.1z M12.1,4.1h-1.7v0.4h1.7V4.1z M8.7,4.1H7v0.4h1.7V4.1z
		 M5.3,4.1H3.6v0.4h1.7V4.1z M226.5,4.1h-0.9v0.4h0.9V4.1z M65,30.9h-0.9v0.4H65V30.9z M223.9,30.9h-1.7v0.4h1.7V30.9z M220.5,30.9
		h-1.7v0.4h1.7V30.9z M217,30.9h-1.7v0.4h1.7V30.9z M213.6,30.9h-1.7v0.4h1.7V30.9z M210.1,30.9h-1.7v0.4h1.7V30.9z M206.6,30.9
		h-1.7v0.4h1.7V30.9z M203.2,30.9h-1.7v0.4h1.7V30.9z M199.7,30.9H198v0.4h1.7V30.9z M196.3,30.9h-1.7v0.4h1.7V30.9z M192.8,30.9
		h-1.7v0.4h1.7V30.9z M189.4,30.9h-1.7v0.4h1.7V30.9z M185.9,30.9h-1.7v0.4h1.7V30.9z M182.5,30.9h-1.7v0.4h1.7V30.9z M179,30.9
		h-1.7v0.4h1.7V30.9z M175.6,30.9h-1.7v0.4h1.7V30.9z M172.1,30.9h-1.7v0.4h1.7V30.9z M168.6,30.9h-1.7v0.4h1.7V30.9z M165.2,30.9
		h-1.7v0.4h1.7V30.9z M161.7,30.9H160v0.4h1.7V30.9z M158.3,30.9h-1.7v0.4h1.7V30.9z M154.8,30.9h-1.7v0.4h1.7V30.9z M151.4,30.9
		h-1.7v0.4h1.7V30.9z M147.9,30.9h-1.7v0.4h1.7V30.9z M144.5,30.9h-1.7v0.4h1.7V30.9z M141,30.9h-1.7v0.4h1.7V30.9z M137.6,30.9
		h-1.7v0.4h1.7V30.9z M134.1,30.9h-1.7v0.4h1.7V30.9z M130.7,30.9h-1.7v0.4h1.7V30.9z M127.2,30.9h-1.7v0.4h1.7V30.9z M123.7,30.9
		H122v0.4h1.7V30.9z M120.3,30.9h-1.7v0.4h1.7V30.9z M116.8,30.9h-1.7v0.4h1.7V30.9z M113.4,30.9h-1.7v0.4h1.7V30.9z M109.9,30.9
		h-1.7v0.4h1.7V30.9z M106.5,30.9h-1.7v0.4h1.7V30.9z M103,30.9h-1.7v0.4h1.7V30.9z M99.6,30.9h-1.7v0.4h1.7V30.9z M96.1,30.9h-1.7
		v0.4h1.7V30.9z M92.7,30.9h-1.7v0.4h1.7V30.9z M89.2,30.9h-1.7v0.4h1.7V30.9z M85.7,30.9H84v0.4h1.7V30.9z M82.3,30.9h-1.7v0.4h1.7
		V30.9z M78.8,30.9h-1.7v0.4h1.7V30.9z M75.4,30.9h-1.7v0.4h1.7V30.9z M71.9,30.9h-1.7v0.4h1.7V30.9z M68.5,30.9h-1.7v0.4h1.7V30.9z
		 M226.5,30.9h-0.9v0.4h0.9V30.9z M1.9,43.2H1v0.4h0.9V43.2z M223.9,43.2h-1.7v0.4h1.7V43.2z M220.5,43.2h-1.7v0.4h1.7V43.2z
		 M217.1,43.2h-1.7v0.4h1.7V43.2z M213.7,43.2H212v0.4h1.7V43.2z M210.3,43.2h-1.7v0.4h1.7V43.2z M206.9,43.2h-1.7v0.4h1.7V43.2z
		 M203.4,43.2h-1.7v0.4h1.7V43.2z M200,43.2h-1.7v0.4h1.7V43.2z M196.6,43.2h-1.7v0.4h1.7V43.2z M193.2,43.2h-1.7v0.4h1.7V43.2z
		 M189.8,43.2h-1.7v0.4h1.7V43.2z M186.4,43.2h-1.7v0.4h1.7V43.2z M182.9,43.2h-1.7v0.4h1.7V43.2z M179.5,43.2h-1.7v0.4h1.7V43.2z
		 M176.1,43.2h-1.7v0.4h1.7V43.2z M172.7,43.2H171v0.4h1.7V43.2z M169.3,43.2h-1.7v0.4h1.7V43.2z M165.9,43.2h-1.7v0.4h1.7V43.2z
		 M162.4,43.2h-1.7v0.4h1.7V43.2z M159,43.2h-1.7v0.4h1.7V43.2z M155.6,43.2h-1.7v0.4h1.7V43.2z M152.2,43.2h-1.7v0.4h1.7V43.2z
		 M148.8,43.2h-1.7v0.4h1.7V43.2z M145.4,43.2h-1.7v0.4h1.7V43.2z M141.9,43.2h-1.7v0.4h1.7V43.2z M138.5,43.2h-1.7v0.4h1.7V43.2z
		 M135.1,43.2h-1.7v0.4h1.7V43.2z M131.7,43.2H130v0.4h1.7V43.2z M128.3,43.2h-1.7v0.4h1.7V43.2z M124.9,43.2h-1.7v0.4h1.7V43.2z
		 M121.4,43.2h-1.7v0.4h1.7V43.2z M118,43.2h-1.7v0.4h1.7V43.2z M114.6,43.2h-1.7v0.4h1.7V43.2z M111.2,43.2h-1.7v0.4h1.7V43.2z
		 M107.8,43.2h-1.7v0.4h1.7V43.2z M104.4,43.2h-1.7v0.4h1.7V43.2z M100.9,43.2h-1.7v0.4h1.7V43.2z M97.5,43.2h-1.7v0.4h1.7V43.2z
		 M94.1,43.2h-1.7v0.4h1.7V43.2z M90.7,43.2H89v0.4h1.7V43.2z M87.3,43.2h-1.7v0.4h1.7V43.2z M83.9,43.2h-1.7v0.4h1.7V43.2z
		 M80.4,43.2h-1.7v0.4h1.7V43.2z M77,43.2h-1.7v0.4H77V43.2z M73.6,43.2h-1.7v0.4h1.7V43.2z M70.2,43.2h-1.7v0.4h1.7V43.2z
		 M66.8,43.2h-1.7v0.4h1.7V43.2z M63.4,43.2h-1.7v0.4h1.7V43.2z M59.9,43.2h-1.7v0.4h1.7V43.2z M56.5,43.2h-1.7v0.4h1.7V43.2z
		 M53.1,43.2h-1.7v0.4h1.7V43.2z M49.7,43.2H48v0.4h1.7V43.2z M46.3,43.2h-1.7v0.4h1.7V43.2z M42.9,43.2h-1.7v0.4h1.7V43.2z
		 M39.4,43.2h-1.7v0.4h1.7V43.2z M36,43.2h-1.7v0.4H36V43.2z M32.6,43.2h-1.7v0.4h1.7V43.2z M29.2,43.2h-1.7v0.4h1.7V43.2z
		 M25.8,43.2h-1.7v0.4h1.7V43.2z M22.4,43.2h-1.7v0.4h1.7V43.2z M18.9,43.2h-1.7v0.4h1.7V43.2z M15.5,43.2h-1.7v0.4h1.7V43.2z
		 M12.1,43.2h-1.7v0.4h1.7V43.2z M8.7,43.2H7v0.4h1.7V43.2z M5.3,43.2H3.6v0.4h1.7V43.2z M226.5,43.2h-0.9v0.4h0.9V43.2z M222.9,0.4
		h-0.4v0.9h0.4V0.4z M222.9,43.6h-0.4v1.7h0.4V43.6z M222.9,40.2h-0.4v1.7h0.4V40.2z M222.9,36.8h-0.4v1.7h0.4V36.8z M222.9,33.5
		h-0.4v1.7h0.4V33.5z M222.9,30.1h-0.4v1.7h0.4V30.1z M222.9,26.7h-0.4v1.7h0.4V26.7z M222.9,23.3h-0.4V25h0.4V23.3z M222.9,19.9
		h-0.4v1.7h0.4V19.9z M222.9,16.5h-0.4v1.7h0.4V16.5z M222.9,13.1h-0.4v1.7h0.4V13.1z M222.9,9.7h-0.4v1.7h0.4V9.7z M222.9,6.3h-0.4
		V8h0.4V6.3z M222.9,3h-0.4v1.7h0.4V3z M222.9,47h-0.4v0.9h0.4V47z M64.4,0.4H64v0.9h0.4V0.4z M64.4,43.6H64v1.7h0.4V43.6z
		 M64.4,40.2H64v1.7h0.4V40.2z M64.4,36.8H64v1.7h0.4V36.8z M64.4,33.5H64v1.7h0.4V33.5z M64.4,30.1H64v1.7h0.4V30.1z M64.4,26.7H64
		v1.7h0.4V26.7z M64.4,23.3H64V25h0.4V23.3z M64.4,19.9H64v1.7h0.4V19.9z M64.4,16.5H64v1.7h0.4V16.5z M64.4,13.1H64v1.7h0.4V13.1z
		 M64.4,9.7H64v1.7h0.4V9.7z M64.4,6.3H64V8h0.4V6.3z M64.4,3H64v1.7h0.4V3z M64.4,47H64v0.9h0.4V47z M5.5,0.4H5v0.9h0.4V0.4z
		 M5.5,43.6H5v1.7h0.4V43.6z M5.5,40.2H5v1.7h0.4V40.2z M5.5,36.8H5v1.7h0.4V36.8z M5.5,33.5H5v1.7h0.4V33.5z M5.5,30.1H5v1.7h0.4
		V30.1z M5.5,26.7H5v1.7h0.4V26.7z M5.5,23.3H5V25h0.4V23.3z M5.5,19.9H5v1.7h0.4V19.9z M5.5,16.5H5v1.7h0.4V16.5z M5.5,13.1H5v1.7
		h0.4V13.1z M5.5,9.7H5v1.7h0.4V9.7z M5.5,6.3H5V8h0.4V6.3z M5.5,3H5v1.7h0.4V3z M5.5,47H5v0.9h0.4V47z"/>
	<path d="M78.7,35.1l-0.5,0.4c-0.4-0.6-1.1-1-1.9-1c-1.4,0-2.4,1.1-2.4,2.5c0,1.4,1,2.5,2.4,2.5c0.9,0,1.6-0.4,2-1.1v-0.8h-2.1v-0.6
		H79v1.6c-0.5,0.9-1.6,1.6-2.8,1.6c-1.8,0-3.1-1.4-3.1-3.1c0-1.8,1.4-3.1,3.1-3.1C77.2,33.8,78.1,34.3,78.7,35.1z M97.9,34.6h-3.2
		v1.8h2.4v0.6h-2.4v2.3H98V40h-4v-6h3.9V34.6z M116.8,40l-1.9-2.5h-1.3V40h-0.7v-6h2.1c1.2,0,1.9,0.7,1.9,1.7c0,0.8-0.5,1.4-1.3,1.7
		l1.9,2.6H116.8z M113.6,36.8h1.4c0.8,0,1.2-0.5,1.2-1.1c0-0.6-0.4-1.1-1.2-1.1h-1.4V36.8z M136.2,40l-1.9-2.5H133V40h-0.7v-6h2.1
		c1.2,0,1.9,0.7,1.9,1.7c0,0.8-0.5,1.4-1.3,1.7L137,40H136.2z M133,36.8h1.4c0.8,0,1.2-0.5,1.2-1.1c0-0.6-0.4-1.1-1.2-1.1H133V36.8z
		 M153.7,37.5V40H153v-2.5l-2.1-3.5h0.8l1.6,2.8l1.7-2.8h0.8L153.7,37.5z M175.7,35.1l-0.5,0.4c-0.4-0.6-1.1-1-1.9-1
		c-1.4,0-2.4,1.1-2.4,2.5c0,1.4,1,2.5,2.4,2.5c0.9,0,1.6-0.4,2-1.1v-0.8h-2.1v-0.6h2.8v1.6c-0.5,0.9-1.6,1.6-2.8,1.6
		c-1.8,0-3.1-1.4-3.1-3.1c0-1.8,1.4-3.1,3.1-3.1C174.2,33.8,175.1,34.3,175.7,35.1z M194.6,38.8h-2.9l-0.5,1.2h-0.7l2.6-6.1h0.3
		l2.6,6.1h-0.8L194.6,38.8z M193.1,35.1l-1.2,3h2.4L193.1,35.1z M216.4,37c0,1.8-1.4,3.1-3.1,3.1c-1.7,0-3.1-1.4-3.1-3.1
		c0-1.8,1.4-3.1,3.1-3.1C215,33.8,216.4,35.2,216.4,37z M210.9,36.9c0,1.4,1,2.5,2.4,2.5c1.4,0,2.4-1.1,2.4-2.5c0-1.4-1-2.5-2.4-2.5
		C211.9,34.5,210.9,35.6,210.9,36.9z M79.7,10.8c3.1,0,5.5,1.2,7.2,3.7l-2.5,2c-1.2-1.7-2.8-2.5-4.7-2.5c-1.6,0-2.9,0.5-3.9,1.6
		s-1.5,2.4-1.5,4c0,1.7,0.5,3,1.5,4.1c1,1.1,2.4,1.6,4.1,1.6c2,0,3.5-0.7,4.5-2.1v-1.4h-4.7v-3h8.2v5c-0.8,1.4-1.9,2.5-3.3,3.3
		c-1.4,0.8-3,1.3-4.8,1.3c-2.5,0-4.7-0.8-6.5-2.5c-1.7-1.7-2.6-3.8-2.6-6.3c0-2.5,0.9-4.6,2.6-6.3C75,11.5,77.2,10.7,79.7,10.8
		L79.7,10.8z M104.2,21.2h-6.5v-2.9h6.5V21.2z M120.3,10.6c1.3,0,2.4,0.3,3.4,0.9c1,0.6,1.7,1.4,2.2,2.3l-2.4,1.8
		c-0.9-1.3-2-2-3.2-2c-0.6,0-1.1,0.1-1.5,0.4c-0.4,0.3-0.6,0.7-0.6,1.2c0,0.4,0.2,0.8,0.5,1.1c0.3,0.3,0.8,0.6,1.5,0.9l1.9,0.8
		c1.4,0.6,2.5,1.3,3.2,2.1c0.7,0.8,1,1.7,1,2.9c0,1.5-0.6,2.8-1.7,3.7c-1.1,0.9-2.5,1.4-4.2,1.4c-1.4,0-2.7-0.3-3.9-1
		c-1.1-0.7-2-1.6-2.7-2.8l2.4-1.8c1.2,1.6,2.6,2.5,4.2,2.5c0.7,0,1.3-0.2,1.8-0.5c0.4-0.3,0.6-0.8,0.6-1.4c0-0.3-0.1-0.6-0.3-0.9
		c-0.2-0.3-0.4-0.5-0.7-0.6c-0.3-0.1-0.6-0.3-1.2-0.6l-1.8-0.8c-1.3-0.6-2.3-1.3-3-2.1c-0.7-0.8-1.1-1.7-1.1-2.8
		c0-1.4,0.5-2.6,1.6-3.5S118.8,10.7,120.3,10.6L120.3,10.6z M149.9,14.1h-5.5V28H141V14.1h-5.4V11h14.4V14.1z M167.7,21.3V28h-3.5
		v-6.7L158.4,11h3.9l3.7,6.7l3.8-6.7h3.8L167.7,21.3z M187.2,24.8h7.4V28h-10.9V11h3.5V24.8z M216.3,14.1h-7.9v3.4h5.8v3h-5.8v4.3
		h8.3V28h-11.7V11h11.4V14.1z M37.8,28.8l18.9,10.7V8.1l-20.9,12v5.5l15.5-8.8v14.2l-6.1-3.1l1.6-4.1L37.8,28.8z M22.1,23.8l1.6,4.1
		l-6.1,3.1V16.8l15.5,8.8v-5.5l-20.9-12v31.4l18.9-10.7L22.1,23.8z"/>
</g>
</svg>
